<?xml version="1.0" encoding="UTF-8" standalone="no"?>
<svg width="17px" height="24px" viewBox="0 0 17 24" version="1.1" xmlns="http://www.w3.org/2000/svg" xmlns:xlink="http://www.w3.org/1999/xlink" xmlns:sketch="http://www.bohemiancoding.com/sketch/ns">
    <!-- Generator: Sketch 3.3.2 (12043) - http://www.bohemiancoding.com/sketch -->
    <title>Group</title>
    <desc>Created with Sketch.</desc>
    <defs></defs>
    <g id="web" stroke="none" stroke-width="1" fill="none" fill-rule="evenodd" sketch:type="MSPage">
        <g id="home-page" sketch:type="MSArtboardGroup" transform="translate(-79.000000, -155.000000)" stroke-linecap="round" stroke="#2E3135" stroke-linejoin="round">
            <g id="Group" sketch:type="MSLayerGroup" transform="translate(76.000000, 155.000000)">
                <g id="I-am-a-designer-with-+-Group" transform="translate(4.000000, 0.000000)" sketch:type="MSShapeGroup">
                    <g id="Group">
                        <path d="M11,4.5 L4,4.5 L1.5,0.5 L13,0.5 L11,4.5 L11,4.5 Z" id="Stroke-1523"></path>
                        <path d="M9,23.5 L6,23.5 L0,11 L4,4.5 L11,4.5 L15,11 L9,23.5 L9,23.5 Z" id="Stroke-1524"></path>
                        <path d="M7.5,12.5 L7.5,23.5" id="Stroke-1525"></path>
                        <path d="M9.5,10.5 C9.5,11.604 8.605,12.5 7.5,12.5 C6.395,12.5 5.5,11.604 5.5,10.5 C5.5,9.396 6.395,8.5 7.5,8.5 C8.605,8.5 9.5,9.396 9.5,10.5 L9.5,10.5 Z" id="Stroke-1526"></path>
                    </g>
                </g>
            </g>
        </g>
    </g>
</svg>