<?xml version="1.0" encoding="UTF-8" standalone="no"?>
<svg width="24px" height="24px" viewBox="0 0 24 24" version="1.1" xmlns="http://www.w3.org/2000/svg" xmlns:xlink="http://www.w3.org/1999/xlink" xmlns:sketch="http://www.bohemiancoding.com/sketch/ns">
    <!-- Generator: Sketch 3.3.2 (12043) - http://www.bohemiancoding.com/sketch -->
    <title>noun_48060_cc</title>
    <desc>Created with Sketch.</desc>
    <defs></defs>
    <g id="web" stroke="none" stroke-width="1" fill="none" fill-rule="evenodd" sketch:type="MSPage">
        <g id="home-page" sketch:type="MSArtboardGroup" transform="translate(-78.000000, -331.000000)" fill="#000000">
            <g id="Group" sketch:type="MSLayerGroup" transform="translate(78.000000, 155.000000)">
                <g id="noun_48060_cc" transform="translate(0.000000, 176.000000)" sketch:type="MSShapeGroup">
                    <ellipse id="Oval" cx="8.95945946" cy="16.4127857" rx="0.608108108" ry="0.903857143"></ellipse>
                    <ellipse id="Oval" cx="15.0405405" cy="16.4127857" rx="0.608108108" ry="0.903857143"></ellipse>
                    <path d="M15.0405405,17.9196429 L8.95945946,17.9196429 C8.76940541,17.9196429 8.5907027,18.0077143 8.47556757,18.1575 C8.36075676,18.3076071 8.32281081,18.5023929 8.37405405,18.6836786 C8.39967568,18.7752857 9.03859459,20.9330357 12.0003243,20.9330357 C14.9623784,20.9330357 15.600973,18.7752857 15.6269189,18.6836786 C15.6775135,18.5023929 15.6402162,18.3076071 15.5247568,18.1575 C15.4099459,18.0077143 15.2305946,17.9196429 15.0405405,17.9196429 L15.0405405,17.9196429 Z" id="Shape"></path>
                    <path d="M12,1.9485 C8.02021622,1.9485 3.7907027,2.89896429 3.7907027,4.66071429 C3.7907027,6.42246429 8.02021622,7.37292857 12,7.37292857 C15.9797838,7.37292857 20.2092973,6.42214286 20.2092973,4.66071429 C20.2092973,2.89928571 15.9797838,1.9485 12,1.9485 L12,1.9485 Z M12,6.76992857 C7.52043243,6.76992857 4.39848649,5.65810714 4.39848649,4.66071429 C4.39848649,3.66332143 7.52043243,2.5515 12,2.5515 C16.4795676,2.5515 19.6015135,3.66332143 19.6015135,4.66071429 C19.6015135,5.65810714 16.4795676,6.76992857 12,6.76992857 L12,6.76992857 Z" id="Shape"></path>
                    <path d="M12,0.140785714 C5.3507027,0.140785714 0.142054054,2.12592857 0.142054054,4.66071429 C0.142054054,5.96828571 1.53535135,7.12671429 3.7907027,7.94475 L3.7907027,20.3303571 C3.7907027,22.0917857 8.02021622,23.0425714 12,23.0425714 C15.9797838,23.0425714 20.2092973,22.0921071 20.2092973,20.3303571 L20.2092973,7.94475 C22.4646486,7.12671429 23.8579459,5.96828571 23.8579459,4.66071429 C23.8579459,2.12592857 18.6492973,0.140785714 12,0.140785714 L12,0.140785714 Z M12,22.4395714 C7.52043243,22.4395714 4.39848649,21.32775 4.39848649,20.3303571 L4.39848649,12.3589286 C5.70324324,13.4312143 8.92118919,14.0020714 12,14.0020714 C15.0788108,14.0020714 18.2967568,13.4312143 19.6015135,12.3589286 L19.6015135,20.3303571 C19.6015135,21.3280714 16.4795676,22.4395714 12,22.4395714 L12,22.4395714 Z M12,13.3997143 C7.52043243,13.3997143 4.39848649,12.2878929 4.39848649,11.2905 L4.39848649,9.94821429 C5.70324324,11.0205 8.92118919,11.5913571 12,11.5913571 C15.0788108,11.5913571 18.2967568,11.0205 19.6015135,9.94821429 L19.6015135,11.2901786 C19.6015135,12.2878929 16.4795676,13.3997143 12,13.3997143 L12,13.3997143 Z M19.6015135,8.87946429 C19.6015135,9.87717857 16.4795676,10.9886786 12,10.9886786 C7.52043243,10.9886786 4.39848649,9.87685714 4.39848649,8.87946429 L4.39848649,8.15560714 C6.44302703,8.79814286 9.08205405,9.18064286 12,9.18064286 C14.9179459,9.18064286 17.5566486,8.79814286 19.6015135,8.15560714 L19.6015135,8.87946429 L19.6015135,8.87946429 Z M12,8.57828571 C5.90172973,8.57828571 0.749837838,6.78439286 0.749837838,4.66071429 C0.749837838,2.53703571 5.90172973,0.743142857 12,0.743142857 C18.0982703,0.743142857 23.2501622,2.53735714 23.2501622,4.66071429 C23.2501622,6.78407143 18.0982703,8.57828571 12,8.57828571 L12,8.57828571 Z" id="Shape"></path>
                </g>
            </g>
        </g>
    </g>
</svg>