<?xml version="1.0" encoding="UTF-8" standalone="no"?>
<svg width="26px" height="24px" viewBox="0 0 26 24" version="1.1" xmlns="http://www.w3.org/2000/svg" xmlns:xlink="http://www.w3.org/1999/xlink" xmlns:sketch="http://www.bohemiancoding.com/sketch/ns">
    <!-- Generator: Sketch 3.3.2 (12043) - http://www.bohemiancoding.com/sketch -->
    <title>Like</title>
    <desc>Created with Sketch.</desc>
    <defs></defs>
    <g id="web" stroke="none" stroke-width="1" fill="none" fill-rule="evenodd" sketch:type="MSPage">
        <g id="home-page" sketch:type="MSArtboardGroup" transform="translate(-78.000000, -335.000000)" stroke="#2E3135">
            <g id="Group" sketch:type="MSLayerGroup" transform="translate(78.000000, 155.000000)">
                <g id="I-also-love-hats,-do-+-Stroke-270" transform="translate(1.000000, 180.000000)" sketch:type="MSShapeGroup">
                    <g id="Like" transform="translate(0.000000, 1.000000)">
                        <path d="M11.7115294,4.14964706 C12.6616471,1.89882353 14.8305882,0.325647059 17.3538824,0.325647059 C20.7534118,0.325647059 23.2014118,3.23388235 23.5091765,6.69882353 C23.5091765,6.69882353 23.6752941,7.55952941 23.3096471,9.10823529 C22.8117647,11.2174118 21.6414118,13.0912941 20.0635294,14.5209412 L11.7115294,21.9722353 L3.50023529,14.5204706 C1.92235294,13.0908235 0.752470588,11.2169412 0.254588235,9.10776471 C-0.111058824,7.55905882 0.0550588235,6.69882353 0.0550588235,6.69882353 C0.362823529,3.23294118 2.81035294,0.325176471 6.20988235,0.325176471 C8.73364706,0.325176471 10.7618824,1.89882353 11.7115294,4.14964706 L11.7115294,4.14964706 Z" id="Stroke-7286"></path>
                        <path d="M2.84094118,7.42070588 C2.84094118,5.08 4.73505882,3.18541176 7.07623529,3.18541176" id="Stroke-7292" stroke-linecap="round"></path>
                    </g>
                </g>
            </g>
        </g>
    </g>
</svg>