<?xml version="1.0" encoding="UTF-8" standalone="no"?>
<svg width="24px" height="9px" viewBox="0 0 24 9" version="1.1" xmlns="http://www.w3.org/2000/svg" xmlns:xlink="http://www.w3.org/1999/xlink" xmlns:sketch="http://www.bohemiancoding.com/sketch/ns">
    <!-- Generator: Sketch 3.3.2 (12043) - http://www.bohemiancoding.com/sketch -->
    <title>Stroke 179 + Stroke 180 + Stroke 181</title>
    <desc>Created with Sketch.</desc>
    <defs></defs>
    <g id="web" stroke="none" stroke-width="1" fill="none" fill-rule="evenodd" sketch:type="MSPage">
        <g id="home-page" sketch:type="MSArtboardGroup" transform="translate(-78.000000, -393.000000)" stroke-linecap="round" stroke="#2E3135" stroke-linejoin="round">
            <g id="Group" sketch:type="MSLayerGroup" transform="translate(78.000000, 155.000000)">
                <g id="Resume-LinkedIn-Drib-+-Stroke-179-+-Stroke-180-+-Stroke-181" transform="translate(0.000000, 232.000000)" sketch:type="MSShapeGroup">
                    <g id="Stroke-179-+-Stroke-180-+-Stroke-181" transform="translate(0.000000, 6.000000)">
                        <path d="M13.5,6.5 C13.5,7.604 14.395,8.5 15.5,8.5 L20.5,8.5 C22.15,8.5 23.5,7.15 23.5,5.5 L23.5,3.5 C23.5,1.85 22.15,0.5 20.5,0.5 L15.5,0.5 C14.395,0.5 13.5,1.396 13.5,2.5" id="Stroke-179"></path>
                        <path d="M10.5,6.5 C10.5,7.604 9.604,8.5 8.5,8.5 L3.5,8.5 C1.85,8.5 0.5,7.15 0.5,5.5 L0.5,3.5 C0.5,1.85 1.85,0.5 3.5,0.5 L8.5,0.5 C9.604,0.5 10.5,1.396 10.5,2.5" id="Stroke-180"></path>
                        <path d="M6.5,4.5 L17.5,4.5" id="Stroke-181"></path>
                    </g>
                </g>
            </g>
        </g>
    </g>
</svg>