<?xml version="1.0" encoding="UTF-8" standalone="no"?>
<svg width="25px" height="24px" viewBox="0 0 25 24" version="1.1" xmlns="http://www.w3.org/2000/svg" xmlns:xlink="http://www.w3.org/1999/xlink" xmlns:sketch="http://www.bohemiancoding.com/sketch/ns">
    <!-- Generator: Sketch 3.3.2 (12043) - http://www.bohemiancoding.com/sketch -->
    <title>Location Area</title>
    <desc>Created with Sketch.</desc>
    <defs></defs>
    <g id="web" stroke="none" stroke-width="1" fill="none" fill-rule="evenodd" sketch:type="MSPage">
        <g id="home-page" sketch:type="MSArtboardGroup" transform="translate(-75.000000, -207.000000)" stroke-linecap="round" stroke="#2E3135">
            <g id="Group" sketch:type="MSLayerGroup" transform="translate(76.000000, 155.000000)">
                <g id="Living-in-San-Franci-+-Stroke-4749-+-Stroke-4750" transform="translate(0.000000, 52.000000)" sketch:type="MSShapeGroup">
                    <g transform="translate(0.000000, 0.300000)" id="Location-Area">
                        <g>
                            <path d="M13.6182756,7.39277819 C13.6182756,8.68223434 12.5731702,9.72733972 11.2837141,9.72733972 C9.99425792,9.72733972 8.94915254,8.68223434 8.94915254,7.39277819 C8.94915254,6.10332203 9.99425792,5.05821665 11.2837141,5.05821665 C12.5731702,5.05821665 13.6182756,6.10332203 13.6182756,7.39277819 L13.6182756,7.39277819 Z" id="Stroke-5816"></path>
                            <path d="M11.2148445,20.6219602 L5.55703464,12.4509948 C3.44503464,9.63512454 3.72518202,4.94927045 6.21382461,2.46062786 C8.976,-0.301547531 13.4540781,-0.301547531 16.2158644,2.46062786 C18.704507,4.94927045 18.9846544,9.63512454 16.8730435,12.4509948 L11.2148445,20.6219602 L11.2148445,20.6219602 Z" id="Stroke-5818"></path>
                            <path d="M6.61459101,17.1201179 C2.71353869,17.5796374 0,18.8574208 0,20.0383198 C0,21.6499455 5.05199116,22.9565217 11.2837141,22.9565217 C17.515437,22.9565217 22.5674282,21.6499455 22.5674282,20.0383198 C22.5674282,18.8574208 19.8538895,17.5796374 15.9528371,17.1201179" id="Stroke-5824"></path>
                        </g>
                    </g>
                </g>
            </g>
        </g>
    </g>
</svg>