<?xml version="1.0" encoding="UTF-8" standalone="no"?>
<svg width="25px" height="22px" viewBox="0 0 25 22" version="1.1" xmlns="http://www.w3.org/2000/svg" xmlns:xlink="http://www.w3.org/1999/xlink" xmlns:sketch="http://www.bohemiancoding.com/sketch/ns">
    <!-- Generator: Sketch 3.3.2 (12043) - http://www.bohemiancoding.com/sketch -->
    <title>Group</title>
    <desc>Created with Sketch.</desc>
    <defs></defs>
    <g id="web" stroke="none" stroke-width="1" fill="none" fill-rule="evenodd" sketch:type="MSPage">
        <g id="home-page" sketch:type="MSArtboardGroup" transform="translate(-78.000000, -266.000000)">
            <g id="Group" sketch:type="MSLayerGroup" transform="translate(78.000000, 155.000000)">
                <g id="I’m-looking-for-a-di-+-Group" transform="translate(0.000000, 105.000000)" sketch:type="MSShapeGroup">
                    <g id="Group" transform="translate(0.000000, 6.000000)">
                        <path d="M0.507936508,7.61904762 L0.507936508,10.6666667 C0.507936508,11.5047619 0.685714286,12.1904762 1.52380952,12.1904762 L1.52380952,16.7619048 L4.57142857,16.7619048 L4.57142857,12.1904762 C5.40850794,12.1904762 5.58628571,11.503746 5.58730159,10.6666667 L5.58730159,7.61904762 L0.507936508,7.61904762 L0.507936508,7.61904762 Z" id="Stroke-9371" stroke="#231F1F"></path>
                        <path d="M18.7936508,7.61904762 L18.7936508,10.6666667 C18.7936508,11.5047619 18.9714286,12.1904762 19.8095238,12.1904762 L19.8095238,16.7619048 L22.8571429,16.7619048 L22.8571429,12.1904762 C23.6942222,12.1904762 23.872,11.503746 23.8730159,10.6666667 L23.8730159,7.61904762 L18.7936508,7.61904762 L18.7936508,7.61904762 Z" id="Stroke-9372" stroke="#231F1F"></path>
                        <path d="M8.63492063,7.61955556 L15.7460317,7.61955556 L15.7460317,12.6989206 C15.7460317,13.816381 14.831746,14.7306667 13.7142857,14.7306667 L13.7142857,20.8259048 L10.6666667,20.8259048 L10.6666667,14.7306667 C9.54819048,14.7306667 8.63492063,13.816381 8.63492063,12.6989206 L8.63492063,7.61955556 L8.63492063,7.61955556 Z" id="Stroke-9373" stroke="#231F1F"></path>
                        <path d="M21.3333333,2.03174603 C20.2107937,2.03174603 19.3015873,2.94196825 19.3015873,4.06349206 C19.3015873,5.18501587 20.2107937,6.0952381 21.3333333,6.0952381 C22.455873,6.0952381 23.3650794,5.18501587 23.3650794,4.06349206 C23.3650794,2.94196825 22.455873,2.03174603 21.3333333,2.03174603 M21.3333333,3.04761905 C21.8930794,3.04761905 22.3492063,3.50273016 22.3492063,4.06349206 C22.3492063,4.62425397 21.8930794,5.07936508 21.3333333,5.07936508 C20.7735873,5.07936508 20.3174603,4.62425397 20.3174603,4.06349206 C20.3174603,3.50273016 20.7735873,3.04761905 21.3333333,3.04761905" id="Fill-9374" fill="#231F1F"></path>
                        <path d="M3.04761905,2.03174603 C1.92507937,2.03174603 1.01587302,2.94196825 1.01587302,4.06349206 C1.01587302,5.18501587 1.92507937,6.0952381 3.04761905,6.0952381 C4.17015873,6.0952381 5.07936508,5.18501587 5.07936508,4.06349206 C5.07936508,2.94196825 4.17015873,2.03174603 3.04761905,2.03174603 M3.04761905,3.04761905 C3.60736508,3.04761905 4.06349206,3.50273016 4.06349206,4.06349206 C4.06349206,4.62425397 3.60736508,5.07936508 3.04761905,5.07936508 C2.48787302,5.07936508 2.03174603,4.62425397 2.03174603,4.06349206 C2.03174603,3.50273016 2.48787302,3.04761905 3.04761905,3.04761905" id="Fill-9375" fill="#231F1F"></path>
                        <path d="M12.1904762,0 C10.5071746,0 9.14285714,1.36431746 9.14285714,3.04761905 C9.14285714,4.73092063 10.5071746,6.0952381 12.1904762,6.0952381 C13.8737778,6.0952381 15.2380952,4.73092063 15.2380952,3.04761905 C15.2380952,1.36431746 13.8737778,0 12.1904762,0 M12.1904762,1.01587302 C13.3109841,1.01587302 14.2222222,1.92711111 14.2222222,3.04761905 C14.2222222,4.16812698 13.3109841,5.07936508 12.1904762,5.07936508 C11.0699683,5.07936508 10.1587302,4.16812698 10.1587302,3.04761905 C10.1587302,1.92711111 11.0699683,1.01587302 12.1904762,1.01587302" id="Fill-9376" fill="#231F1F"></path>
                    </g>
                </g>
            </g>
        </g>
    </g>
</svg>