<?xml version="1.0" encoding="UTF-8" standalone="no"?>
<svg width="24px" height="21px" viewBox="0 0 24 21" version="1.1" xmlns="http://www.w3.org/2000/svg" xmlns:xlink="http://www.w3.org/1999/xlink" xmlns:sketch="http://www.bohemiancoding.com/sketch/ns">
    <!-- Generator: Sketch 3.3.2 (12043) - http://www.bohemiancoding.com/sketch -->
    <title>Group</title>
    <desc>Created with Sketch.</desc>
    <defs></defs>
    <g id="web" stroke="none" stroke-width="1" fill="none" fill-rule="evenodd" sketch:type="MSPage">
        <g id="home-page" sketch:type="MSArtboardGroup" transform="translate(-144.000000, -270.000000)">
            <g id="Group" sketch:type="MSLayerGroup" transform="translate(144.000000, 155.000000)">
                <g id="I’m-looking-for-a-di-+-Group" transform="translate(0.000000, 109.000000)" sketch:type="MSShapeGroup">
                    <g id="Group" transform="translate(0.000000, 6.000000)">
                        <path d="M0.5,7.5 L0.5,10.5 C0.5,11.325 0.675,12 1.5,12 L1.5,16.5 L4.5,16.5 L4.5,12 C5.324,12 5.499,11.324 5.5,10.5 L5.5,7.5 L0.5,7.5 L0.5,7.5 Z" id="Stroke-9371" stroke="#231F1F"></path>
                        <path d="M18.5,7.5 L18.5,10.5 C18.5,11.325 18.675,12 19.5,12 L19.5,16.5 L22.5,16.5 L22.5,12 C23.324,12 23.499,11.324 23.5,10.5 L23.5,7.5 L18.5,7.5 L18.5,7.5 Z" id="Stroke-9372" stroke="#231F1F"></path>
                        <path d="M8.5,7.5005 L15.5,7.5005 L15.5,12.5005 C15.5,13.6005 14.6,14.5005 13.5,14.5005 L13.5,20.5005 L10.5,20.5005 L10.5,14.5005 C9.399,14.5005 8.5,13.6005 8.5,12.5005 L8.5,7.5005 L8.5,7.5005 Z" id="Stroke-9373" stroke="#231F1F"></path>
                        <path d="M21,2 C19.895,2 19,2.896 19,4 C19,5.104 19.895,6 21,6 C22.105,6 23,5.104 23,4 C23,2.896 22.105,2 21,2 M21,3 C21.551,3 22,3.448 22,4 C22,4.552 21.551,5 21,5 C20.449,5 20,4.552 20,4 C20,3.448 20.449,3 21,3" id="Fill-9374" fill="#231F1F"></path>
                        <path d="M3,2 C1.895,2 1,2.896 1,4 C1,5.104 1.895,6 3,6 C4.105,6 5,5.104 5,4 C5,2.896 4.105,2 3,2 M3,3 C3.551,3 4,3.448 4,4 C4,4.552 3.551,5 3,5 C2.449,5 2,4.552 2,4 C2,3.448 2.449,3 3,3" id="Fill-9375" fill="#231F1F"></path>
                        <path d="M12,0 C10.343,0 9,1.343 9,3 C9,4.657 10.343,6 12,6 C13.657,6 15,4.657 15,3 C15,1.343 13.657,0 12,0 M12,1 C13.103,1 14,1.897 14,3 C14,4.103 13.103,5 12,5 C10.897,5 10,4.103 10,3 C10,1.897 10.897,1 12,1" id="Fill-9376" fill="#231F1F"></path>
                    </g>
                </g>
            </g>
        </g>
    </g>
</svg>